<svg xmlns="http://www.w3.org/2000/svg" xmlns:xlink="http://www.w3.org/1999/xlink" width="500" zoomAndPan="magnify" viewBox="0 0 375 374.999991" height="500" preserveAspectRatio="xMidYMid meet" version="1.0"><defs><g/><clipPath id="a9e7d7864c"><path d="M 16.457031 85.671875 L 115 85.671875 L 115 277.644531 L 16.457031 277.644531 Z M 16.457031 85.671875 " clip-rule="nonzero"/></clipPath><clipPath id="2734685f3c"><path d="M 113 164 L 197.28125 164 L 197.28125 249 L 113 249 Z M 113 164 " clip-rule="nonzero"/></clipPath><clipPath id="5134e100ca"><path d="M 207.816406 85.671875 L 361.394531 85.671875 L 361.394531 281.359375 L 207.816406 281.359375 Z M 207.816406 85.671875 " clip-rule="nonzero"/></clipPath><clipPath id="ce1aacc97f"><path d="M 48.273438 122 L 273.6875 122 L 273.6875 132.527344 L 48.273438 132.527344 Z M 48.273438 122 " clip-rule="nonzero"/></clipPath></defs><g clip-path="url(#a9e7d7864c)"><path fill="#32620e" d="M 114.515625 235.085938 L 114.515625 277.507812 L 112.664062 277.417969 C 75.894531 275.679688 48.417969 259.929688 31.003906 230.59375 C 21.328125 214.289062 16.480469 197.554688 16.601562 180.855469 C 16.730469 164.164062 21.816406 147.492188 31.726562 131.316406 C 49.316406 102.613281 76.523438 87.28125 112.601562 85.75 L 114.457031 85.671875 L 114.457031 127.984375 L 112.746094 128.046875 C 78.828125 129.34375 60.195312 156.242188 59.894531 180.894531 C 59.570312 206.476562 79.699219 234.460938 112.777344 235.054688 Z M 114.515625 235.085938 " fill-opacity="1" fill-rule="nonzero"/></g><g clip-path="url(#2734685f3c)"><path fill="#32620e" d="M 158.910156 248.621094 C 158.910156 233.601562 158.910156 218.863281 158.910156 203.71875 C 143.90625 203.71875 129.109375 203.71875 114.101562 203.71875 C 113.953125 202.476562 113.765625 201.617188 113.765625 200.753906 C 113.75 189.828125 113.796875 178.90625 113.730469 167.976562 C 113.71875 165.84375 114.050781 164.699219 116.625 164.707031 C 142.867188 164.789062 169.109375 164.761719 195.355469 164.769531 C 195.902344 164.769531 196.449219 164.867188 197.230469 164.933594 C 197.230469 192.8125 197.230469 220.570312 197.230469 248.617188 C 184.636719 248.621094 172 248.621094 158.910156 248.621094 Z M 158.910156 248.621094 " fill-opacity="1" fill-rule="nonzero"/></g><g clip-path="url(#5134e100ca)"><path fill="#32620e" d="M 284.421875 128.144531 L 249.125 128.144531 L 249.125 169.441406 L 284.421875 169.441406 C 303.882812 169.441406 319.71875 185.277344 319.71875 204.738281 C 319.71875 224.203125 303.882812 240.039062 284.421875 240.039062 C 264.957031 240.039062 249.125 224.203125 249.125 204.738281 L 249.125 169.441406 L 207.824219 169.441406 L 207.824219 204.738281 C 207.824219 246.976562 242.1875 281.335938 284.421875 281.335938 C 326.65625 281.335938 361.019531 246.976562 361.019531 204.738281 C 361.019531 162.503906 326.65625 128.144531 284.421875 128.144531 Z M 249.125 85.773438 L 249.125 128.144531 L 207.824219 128.144531 L 207.824219 85.773438 L 249.125 85.773438 " fill-opacity="1" fill-rule="nonzero"/></g><path fill="#32620e" d="M 158.78125 73.445312 L 173.476562 71.269531 C 173.515625 71.257812 173.53125 71.285156 173.53125 71.332031 L 173.53125 73.183594 C 173.53125 73.242188 173.507812 73.273438 173.46875 73.273438 C 171.476562 73.167969 169.496094 73.203125 167.519531 73.371094 C 167.429688 73.378906 167.421875 73.421875 167.480469 73.5 L 173.492188 81.84375 C 173.523438 81.882812 173.53125 81.925781 173.53125 81.972656 L 173.53125 86.09375 C 173.53125 86.132812 173.515625 86.15625 173.492188 86.15625 C 173.476562 86.15625 173.460938 86.148438 173.453125 86.140625 L 172.59375 85.03125 C 172.554688 84.976562 172.527344 84.992188 172.527344 85.074219 L 172.527344 98.796875 C 172.527344 98.855469 172.503906 98.886719 172.464844 98.886719 L 171.972656 98.894531 C 171.929688 98.894531 171.914062 98.871094 171.914062 98.8125 L 171.914062 84.246094 C 171.914062 84.191406 171.898438 84.140625 171.867188 84.101562 L 167.910156 79.019531 C 167.875 78.988281 167.867188 78.996094 167.867188 79.042969 L 167.867188 98.992188 C 167.867188 99.046875 167.84375 99.074219 167.804688 99.082031 L 167.316406 99.113281 C 167.269531 99.113281 167.246094 99.082031 167.246094 99.015625 L 167.246094 78.285156 C 167.246094 78.203125 167.21875 78.136719 167.179688 78.082031 L 165.230469 75.605469 C 165.222656 75.597656 165.214844 75.589844 165.207031 75.589844 C 165.179688 75.589844 165.164062 75.613281 165.164062 75.636719 C 165.164062 75.644531 165.164062 75.644531 165.164062 75.644531 L 165.164062 99.136719 C 165.164062 99.1875 165.148438 99.210938 165.117188 99.210938 L 164.597656 99.226562 C 164.558594 99.226562 164.542969 99.203125 164.542969 99.152344 L 164.542969 74.84375 C 164.542969 74.796875 164.527344 74.746094 164.5 74.714844 L 163.925781 74.003906 C 163.894531 73.960938 163.855469 73.945312 163.804688 73.953125 C 163.191406 74.117188 162.574219 74.292969 161.96875 74.496094 C 161.863281 74.527344 161.863281 74.554688 161.96875 74.5625 L 162.121094 74.578125 C 162.164062 74.585938 162.1875 74.617188 162.1875 74.675781 L 162.1875 99.257812 C 162.1875 99.300781 162.15625 99.339844 162.121094 99.347656 L 161.800781 99.355469 C 161.757812 99.363281 161.742188 99.339844 161.742188 99.28125 L 161.742188 74.667969 C 161.742188 74.617188 161.726562 74.601562 161.695312 74.617188 C 160.820312 74.917969 159.984375 75.386719 159.21875 76 C 159.183594 76.027344 159.167969 76.066406 159.167969 76.113281 L 159.265625 99.507812 C 159.265625 99.542969 159.257812 99.558594 159.234375 99.566406 L 155.566406 100.222656 C 155.527344 100.222656 155.511719 100.207031 155.511719 100.15625 L 155.511719 76.234375 C 155.511719 76.15625 155.488281 76.140625 155.4375 76.179688 L 154.539062 76.949219 C 154.515625 76.964844 154.507812 76.996094 154.507812 77.03125 L 154.507812 120.492188 C 153.496094 120.5 152.484375 120.507812 151.472656 120.523438 L 151.472656 98.28125 C 151.472656 98.238281 151.488281 98.207031 151.523438 98.207031 L 152.421875 98.207031 C 152.460938 98.207031 152.476562 98.183594 152.476562 98.132812 L 152.476562 78.71875 C 152.476562 78.664062 152.460938 78.648438 152.421875 78.679688 L 148.488281 81.820312 C 148.464844 81.84375 148.445312 81.882812 148.445312 81.933594 L 148.445312 120.558594 L 148.019531 120.566406 L 148.019531 82.296875 C 148.019531 82.234375 148 82.214844 147.953125 82.25 L 147.070312 82.929688 C 147.039062 82.945312 147.023438 82.976562 147.023438 83.027344 L 147.023438 120.574219 L 146.40625 120.582031 L 146.40625 83.527344 C 146.40625 83.519531 146.40625 83.511719 146.40625 83.511719 C 146.398438 83.472656 146.375 83.453125 146.34375 83.460938 C 146.34375 83.460938 146.335938 83.460938 146.335938 83.472656 C 143.574219 85.605469 140.792969 87.671875 137.976562 89.675781 C 137.941406 89.695312 137.925781 89.734375 137.925781 89.78125 L 137.925781 120.75 L 137.304688 120.769531 L 137.304688 90.234375 C 137.304688 90.171875 137.28125 90.15625 137.230469 90.1875 L 136.566406 90.65625 C 136.527344 90.679688 136.503906 90.730469 136.503906 90.785156 L 136.503906 120.792969 L 135.886719 120.808594 L 135.886719 91.230469 C 135.886719 91.175781 135.871094 91.160156 135.832031 91.191406 C 132.835938 93.3125 129.800781 95.351562 126.75 97.316406 C 126.710938 97.339844 126.6875 97.382812 126.6875 97.445312 L 126.6875 121.109375 L 126.070312 121.132812 L 126.070312 97.867188 C 126.070312 97.835938 126.054688 97.808594 126.03125 97.808594 C 126.023438 97.808594 126.015625 97.816406 126.007812 97.816406 L 125.320312 98.28125 C 125.285156 98.304688 125.269531 98.34375 125.269531 98.382812 L 125.269531 121.164062 L 124.65625 121.1875 L 124.65625 98.796875 C 124.65625 98.773438 124.648438 98.757812 124.632812 98.757812 C 124.625 98.757812 124.625 98.757812 124.613281 98.757812 L 114.90625 104.777344 C 114.871094 104.792969 114.847656 104.835938 114.847656 104.882812 L 114.847656 121.640625 L 114.234375 121.675781 L 114.242188 105.253906 C 114.242188 105.222656 114.214844 105.199219 114.199219 105.199219 C 114.191406 105.199219 114.183594 105.199219 114.175781 105.207031 L 111.261719 106.890625 C 111.222656 106.90625 111.207031 106.945312 111.207031 106.996094 L 111.207031 121.84375 C 111.003906 121.851562 110.800781 121.867188 110.597656 121.875 L 110.597656 107.351562 C 110.597656 107.308594 110.574219 107.285156 110.550781 107.285156 C 110.542969 107.285156 110.535156 107.285156 110.527344 107.285156 C 107.257812 109.238281 103.964844 111.097656 100.644531 112.863281 C 100.605469 112.886719 100.589844 112.917969 100.589844 112.96875 L 100.589844 122.546875 C 100.386719 122.5625 100.175781 122.582031 99.964844 122.597656 L 99.964844 113.308594 C 99.964844 113.25 99.949219 113.226562 99.910156 113.25 L 98.929688 113.769531 C 98.890625 113.792969 98.867188 113.832031 98.867188 113.882812 L 98.867188 122.675781 L 98.242188 122.726562 L 98.242188 114.222656 C 98.242188 114.164062 98.226562 114.148438 98.1875 114.171875 C 93.847656 116.527344 89.46875 118.753906 85.050781 120.847656 C 85.019531 120.863281 85.003906 120.898438 85.003906 120.945312 L 85.003906 123.941406 C 84.800781 123.964844 84.597656 123.988281 84.390625 124.003906 L 84.390625 121.300781 C 84.390625 121.246094 84.363281 121.222656 84.324219 121.246094 C 83.417969 121.675781 82.527344 122.109375 81.636719 122.554688 C 81.621094 122.5625 81.605469 122.574219 81.589844 122.5625 C 81.566406 122.5625 81.554688 122.554688 81.582031 122.539062 L 84.339844 121.066406 C 84.371094 121.050781 84.390625 121.019531 84.390625 120.976562 L 84.390625 111.324219 C 84.390625 111.308594 84.378906 111.308594 84.371094 111.308594 C 79.792969 113.597656 75.195312 115.839844 70.589844 118.046875 C 70.582031 118.046875 70.582031 118.039062 70.574219 118.039062 C 70.574219 118.007812 70.566406 118 70.574219 118.023438 C 70.574219 118.03125 70.574219 118.03125 70.582031 118.023438 C 78.304688 113.960938 86.007812 109.867188 93.613281 105.441406 C 108.828125 96.589844 123.507812 87.070312 137.441406 75.773438 C 141.625 72.382812 145.640625 68.816406 149.484375 65.070312 C 151.488281 63.109375 153.457031 60.984375 155.390625 58.683594 C 155.40625 58.652344 155.421875 58.621094 155.421875 58.585938 C 155.421875 58.578125 155.421875 58.570312 155.414062 58.5625 C 155.367188 58.117188 155.375 57.695312 155.445312 57.292969 C 155.496094 57.023438 155.519531 56.773438 155.519531 56.546875 C 155.527344 56.144531 155.617188 54.863281 155.980469 54.734375 C 156.667969 54.476562 156.789062 56.570312 156.789062 57 C 156.789062 57.050781 156.796875 57.097656 156.820312 57.140625 C 157.136719 57.679688 157.265625 58.296875 157.21875 58.976562 C 157.21875 59.023438 157.226562 59.074219 157.25 59.105469 C 159.515625 62.664062 163.839844 62.527344 166.929688 61.621094 C 167.097656 61.566406 167.253906 61.46875 167.390625 61.324219 C 169.421875 59.226562 171.386719 57.035156 173.304688 54.757812 C 173.886719 54.070312 174.34375 53.886719 175.078125 54.273438 C 175.371094 54.4375 175.742188 54.71875 175.917969 54.25 C 176.023438 53.976562 176.171875 53.746094 176.355469 53.578125 C 176.496094 53.457031 176.582031 53.238281 176.574219 53.035156 C 176.535156 52.074219 176.453125 51.3125 176.851562 50.421875 C 177.246094 49.554688 177.78125 50.210938 177.984375 50.882812 C 178.242188 51.699219 178.25 52.527344 178.007812 53.34375 C 177.992188 53.390625 177.992188 53.433594 178 53.480469 C 178.429688 55.464844 179.246094 57.292969 180.574219 58.433594 C 180.605469 58.457031 180.621094 58.5 180.621094 58.539062 L 180.621094 59.671875 C 180.621094 59.734375 180.636719 59.785156 180.671875 59.816406 C 199.742188 80.921875 218.628906 102.292969 237.347656 123.949219 C 237.082031 123.914062 236.820312 123.890625 236.5625 123.859375 L 234.855469 121.996094 C 234.816406 121.957031 234.796875 121.972656 234.796875 122.03125 L 234.796875 123.679688 C 234.597656 123.664062 234.394531 123.640625 234.191406 123.625 L 234.175781 123.625 L 234.175781 121.335938 C 234.175781 121.285156 234.160156 121.238281 234.128906 121.203125 L 227.425781 113.953125 C 227.386719 113.90625 227.363281 113.921875 227.363281 114.003906 L 227.363281 122.992188 C 227.152344 122.976562 226.949219 122.960938 226.746094 122.945312 L 226.746094 113.316406 C 226.746094 113.257812 226.722656 113.195312 226.691406 113.160156 L 219.972656 105.949219 C 219.964844 105.941406 219.964844 105.941406 219.957031 105.941406 C 219.941406 105.941406 219.925781 105.960938 219.925781 105.984375 L 219.925781 122.410156 C 219.714844 122.394531 219.511719 122.386719 219.308594 122.371094 L 219.308594 105.328125 C 219.308594 105.261719 219.285156 105.207031 219.246094 105.164062 L 213.460938 98.949219 C 213.453125 98.941406 213.445312 98.933594 213.433594 98.933594 C 213.417969 98.933594 213.402344 98.960938 213.402344 98.984375 L 213.402344 121.980469 C 213.199219 121.964844 212.988281 121.957031 212.789062 121.941406 L 212.789062 98.289062 C 212.789062 98.246094 212.773438 98.214844 212.753906 98.191406 L 206.453125 91.457031 C 206.425781 91.425781 206.410156 91.433594 206.410156 91.480469 L 206.410156 121.585938 L 205.796875 121.550781 L 205.796875 90.777344 C 205.796875 90.761719 205.796875 90.753906 205.789062 90.746094 L 200.34375 84.933594 C 200.335938 84.925781 200.324219 84.925781 200.316406 84.925781 C 200.300781 84.925781 200.285156 84.945312 200.285156 84.96875 L 200.285156 117.222656 C 200.285156 117.238281 200.292969 117.246094 200.292969 117.253906 L 203.75 121.457031 C 203.351562 121.4375 202.957031 121.414062 202.558594 121.398438 L 200.335938 118.90625 C 200.300781 118.875 200.285156 118.882812 200.285156 118.9375 L 200.285156 121.292969 C 200.042969 121.285156 199.792969 121.277344 199.550781 121.261719 L 199.550781 118.058594 C 199.550781 118.007812 199.53125 117.96875 199.507812 117.933594 L 198.886719 117.214844 C 198.878906 117.207031 198.871094 117.199219 198.859375 117.199219 C 198.835938 117.199219 198.820312 117.222656 198.820312 117.246094 L 198.820312 121.238281 C 198.617188 121.230469 198.417969 121.222656 198.214844 121.203125 L 198.207031 116.503906 C 198.207031 116.460938 198.199219 116.429688 198.171875 116.40625 L 193.867188 111.339844 C 193.835938 111.300781 193.820312 111.308594 193.820312 111.371094 L 193.820312 121.042969 C 193.527344 121.027344 193.246094 121.019531 192.953125 121.011719 L 192.953125 110.359375 C 192.953125 110.289062 192.9375 110.222656 192.898438 110.183594 L 187.007812 103.0625 C 187.007812 103.0625 187.007812 103.0625 186.996094 103.0625 C 186.980469 103.054688 186.972656 103.0625 186.964844 103.078125 C 186.964844 103.078125 186.964844 103.085938 186.964844 103.09375 L 186.964844 120.824219 L 186.367188 120.808594 L 186.367188 102.332031 C 186.367188 102.285156 186.351562 102.246094 186.328125 102.210938 L 185.5 101.199219 C 185.453125 101.144531 185.429688 101.160156 185.429688 101.242188 L 185.429688 120.785156 L 184.78125 120.769531 L 184.78125 100.382812 C 184.78125 100.34375 184.773438 100.3125 184.75 100.277344 L 180.660156 95.21875 C 180.636719 95.179688 180.621094 95.1875 180.621094 95.246094 L 180.621094 120.671875 C 179.171875 120.636719 177.734375 120.613281 176.285156 120.589844 L 176.285156 97.261719 C 176.285156 97.1875 176.257812 97.164062 176.210938 97.1875 L 175.757812 97.414062 C 175.75 97.421875 175.75 97.421875 175.75 97.421875 C 175.726562 97.429688 175.703125 97.40625 175.691406 97.375 C 175.691406 97.363281 175.691406 97.363281 175.691406 97.355469 C 175.839844 84.917969 175.984375 72.472656 176.113281 60.027344 C 176.128906 58.726562 176.1875 57.429688 176.300781 56.144531 C 176.300781 56.109375 176.277344 56.085938 176.257812 56.085938 C 176.25 56.085938 176.234375 56.09375 176.226562 56.101562 C 174.738281 57.882812 173.191406 59.582031 171.605469 61.210938 C 171.605469 61.21875 171.597656 61.226562 171.597656 61.226562 C 171.589844 61.25 171.597656 61.28125 171.613281 61.289062 C 171.621094 61.289062 171.621094 61.296875 171.632812 61.296875 C 172.125 61.28125 172.617188 61.296875 173.128906 61.332031 C 173.144531 61.339844 173.152344 61.339844 173.160156 61.355469 C 173.167969 61.371094 173.167969 61.378906 173.152344 61.378906 L 171.324219 61.582031 C 171.292969 61.589844 171.257812 61.605469 171.234375 61.628906 L 168.476562 64.398438 C 168.457031 64.414062 168.441406 64.445312 168.441406 64.488281 L 168.417969 69.722656 C 168.417969 69.769531 168.394531 69.804688 168.363281 69.820312 L 167.804688 70.046875 C 167.761719 70.0625 167.738281 70.046875 167.738281 69.980469 L 167.738281 65.230469 C 167.738281 65.167969 167.714844 65.148438 167.675781 65.191406 L 166.742188 66.074219 C 166.710938 66.105469 166.695312 66.144531 166.695312 66.203125 L 166.671875 69.859375 C 166.671875 69.90625 166.652344 69.941406 166.613281 69.957031 L 166.078125 70.167969 C 166.023438 70.191406 166 70.160156 166 70.078125 L 165.992188 66.898438 C 165.992188 66.824219 165.972656 66.808594 165.925781 66.847656 L 165.199219 67.546875 C 165.15625 67.578125 165.140625 67.625 165.140625 67.683594 L 165.140625 70.222656 C 165.140625 70.273438 165.117188 70.3125 165.085938 70.320312 L 164.519531 70.546875 C 164.511719 70.546875 164.511719 70.546875 164.511719 70.546875 C 164.484375 70.546875 164.460938 70.523438 164.453125 70.492188 C 164.453125 70.492188 164.453125 70.484375 164.453125 70.484375 L 164.453125 68.339844 C 164.453125 68.273438 164.4375 68.265625 164.398438 68.296875 L 163.546875 69.089844 C 163.515625 69.125 163.5 69.164062 163.5 69.210938 L 163.5 70.554688 C 163.5 70.613281 163.472656 70.644531 163.441406 70.660156 L 162.875 70.878906 C 162.835938 70.894531 162.808594 70.871094 162.808594 70.816406 L 162.808594 69.867188 C 162.808594 69.792969 162.785156 69.777344 162.746094 69.820312 L 158.765625 73.378906 C 158.707031 73.429688 158.707031 73.453125 158.78125 73.445312 Z M 156.578125 63.25 L 156.59375 62.164062 C 156.59375 62.164062 156.59375 62.15625 156.59375 62.148438 C 156.585938 62.125 156.5625 62.117188 156.546875 62.125 C 156.539062 62.125 156.539062 62.125 156.53125 62.132812 L 154.554688 64.25 C 154.523438 64.285156 154.507812 64.332031 154.507812 64.382812 L 154.507812 73.589844 C 154.507812 73.648438 154.523438 73.664062 154.554688 73.628906 L 156.585938 71.816406 C 156.613281 71.792969 156.613281 71.769531 156.59375 71.730469 C 156.585938 71.710938 156.585938 71.695312 156.578125 71.679688 C 156.5625 71.65625 156.5625 71.617188 156.5625 71.574219 C 156.570312 69.859375 156.570312 68.136719 156.5625 66.414062 C 156.5625 66.355469 156.585938 66.324219 156.628906 66.308594 L 157.210938 66.113281 C 157.25 66.097656 157.265625 66.113281 157.265625 66.167969 L 157.25 71.136719 C 157.25 71.195312 157.265625 71.203125 157.300781 71.171875 L 158.09375 70.457031 C 158.117188 70.433594 158.132812 70.386719 158.132812 70.34375 L 158.132812 66.175781 C 158.132812 66.121094 158.15625 66.089844 158.199219 66.074219 L 158.765625 65.878906 C 158.804688 65.863281 158.828125 65.886719 158.828125 65.949219 L 158.820312 69.679688 C 158.820312 69.746094 158.835938 69.753906 158.878906 69.722656 L 159.550781 69.074219 C 159.589844 69.042969 159.605469 69 159.605469 68.945312 L 159.597656 65.933594 C 159.597656 65.886719 159.613281 65.855469 159.65625 65.835938 L 160.246094 65.644531 C 160.285156 65.628906 160.300781 65.652344 160.300781 65.699219 L 160.292969 68.273438 C 160.292969 68.339844 160.316406 68.355469 160.359375 68.3125 L 160.902344 67.796875 C 160.925781 67.773438 160.941406 67.738281 160.941406 67.691406 L 160.941406 65.675781 C 160.941406 65.628906 160.964844 65.585938 161.003906 65.570312 L 161.582031 65.375 C 161.582031 65.375 161.589844 65.367188 161.589844 65.367188 C 161.621094 65.367188 161.644531 65.402344 161.644531 65.441406 L 161.636719 67.011719 C 161.636719 67.074219 161.660156 67.085938 161.695312 67.042969 L 162.761719 66.023438 C 162.792969 65.984375 162.820312 65.941406 162.808594 65.878906 L 162.808594 65.5625 C 162.808594 65.5625 162.808594 65.554688 162.808594 65.554688 C 162.808594 65.515625 162.835938 65.480469 162.859375 65.472656 C 163.207031 65.382812 163.457031 65.304688 163.757812 65.019531 C 164.6875 64.121094 165.617188 63.191406 166.53125 62.21875 C 166.582031 62.171875 166.574219 62.148438 166.507812 62.15625 L 156.636719 63.320312 C 156.59375 63.328125 156.578125 63.304688 156.578125 63.25 Z M 184.78125 68.394531 C 184.78125 68.378906 184.78125 68.371094 184.773438 68.355469 L 180.679688 64.015625 C 180.671875 64.007812 180.660156 64.007812 180.652344 64.007812 C 180.636719 64.007812 180.621094 64.035156 180.621094 64.058594 L 180.621094 91.554688 C 180.621094 91.5625 180.621094 91.578125 180.628906 91.585938 L 184.714844 97.082031 C 184.722656 97.089844 184.730469 97.097656 184.75 97.097656 C 184.765625 97.097656 184.78125 97.074219 184.78125 97.050781 Z M 147.085938 80.046875 L 152.453125 75.507812 C 152.46875 75.492188 152.476562 75.46875 152.476562 75.433594 L 152.476562 66.402344 C 152.476562 66.363281 152.46875 66.355469 152.445312 66.378906 L 147.070312 71.269531 C 147.039062 71.292969 147.023438 71.332031 147.023438 71.382812 L 147.023438 79.992188 C 147.023438 80.0625 147.046875 80.082031 147.085938 80.046875 Z M 186.367188 70.078125 C 186.367188 70.0625 186.359375 70.046875 186.351562 70.039062 L 185.492188 69.132812 C 185.484375 69.125 185.476562 69.113281 185.46875 69.113281 C 185.453125 69.113281 185.429688 69.140625 185.429688 69.164062 L 185.429688 98.011719 C 185.429688 98.027344 185.4375 98.035156 185.445312 98.054688 L 186.300781 99.175781 C 186.308594 99.195312 186.316406 99.195312 186.328125 99.195312 C 186.351562 99.195312 186.367188 99.175781 186.367188 99.144531 Z M 186.964844 100.058594 C 186.964844 100.066406 186.964844 100.085938 186.972656 100.09375 L 192.898438 107.84375 C 192.90625 107.859375 192.914062 107.859375 192.921875 107.859375 C 192.9375 107.859375 192.953125 107.84375 192.953125 107.8125 L 192.953125 77.085938 C 192.953125 77.070312 192.953125 77.0625 192.945312 77.054688 L 187.023438 70.75 C 187.015625 70.75 187.007812 70.742188 186.996094 70.742188 C 186.980469 70.742188 186.964844 70.765625 186.964844 70.789062 Z M 138.210938 78.363281 C 138.128906 78.429688 138.046875 78.503906 137.96875 78.582031 C 137.933594 78.605469 137.925781 78.648438 137.925781 78.6875 L 137.925781 87.226562 C 137.925781 87.257812 137.949219 87.289062 137.976562 87.289062 C 137.984375 87.289062 138 87.289062 138.007812 87.28125 L 146.351562 80.664062 C 146.390625 80.628906 146.40625 80.589844 146.40625 80.523438 L 146.40625 71.890625 C 146.40625 71.824219 146.390625 71.808594 146.351562 71.84375 C 143.671875 74.109375 140.960938 76.277344 138.210938 78.363281 Z M 199.550781 84.109375 C 199.550781 84.09375 199.539062 84.078125 199.53125 84.070312 L 193.875 78.050781 C 193.867188 78.039062 193.859375 78.03125 193.851562 78.03125 C 193.835938 78.03125 193.820312 78.058594 193.820312 78.082031 L 193.820312 109.027344 C 193.820312 109.042969 193.828125 109.050781 193.828125 109.058594 L 199.492188 116.246094 C 199.492188 116.253906 199.5 116.261719 199.507812 116.261719 C 199.53125 116.261719 199.550781 116.234375 199.550781 116.210938 Z M 137.246094 79.109375 C 133.945312 81.617188 130.28125 84.191406 126.734375 86.636719 C 126.703125 86.660156 126.6875 86.699219 126.6875 86.75 L 126.6875 95.351562 C 126.6875 95.421875 126.710938 95.4375 126.757812 95.40625 C 130.304688 92.980469 133.800781 90.4375 137.246094 87.785156 C 137.289062 87.75 137.304688 87.710938 137.304688 87.65625 L 137.304688 79.15625 C 137.304688 79.101562 137.28125 79.085938 137.246094 79.109375 Z M 115.707031 93.738281 C 115.445312 93.902344 115.179688 94.070312 114.90625 94.25 C 114.863281 94.273438 114.847656 94.3125 114.847656 94.371094 L 114.847656 103.335938 C 114.847656 103.34375 114.847656 103.34375 114.847656 103.351562 C 114.855469 103.378906 114.878906 103.402344 114.894531 103.394531 C 114.90625 103.394531 114.90625 103.386719 114.90625 103.386719 C 118.617188 100.933594 122.332031 98.507812 126.007812 95.949219 C 126.046875 95.925781 126.070312 95.875 126.070312 95.820312 L 126.070312 87.175781 C 126.070312 87.167969 126.070312 87.167969 126.070312 87.160156 C 126.0625 87.121094 126.03125 87.097656 126 87.105469 C 126 87.105469 125.992188 87.105469 125.992188 87.113281 C 122.59375 89.417969 119.167969 91.628906 115.707031 93.738281 Z M 113.179688 104.476562 C 113.519531 104.269531 113.859375 104.058594 114.183594 103.855469 C 114.214844 103.832031 114.242188 103.789062 114.242188 103.742188 L 114.242188 94.734375 C 114.242188 94.703125 114.226562 94.695312 114.199219 94.710938 C 109.710938 97.421875 105.175781 100.066406 100.605469 102.65625 C 100.597656 102.65625 100.597656 102.664062 100.597656 102.671875 C 100.589844 105.773438 100.589844 108.886719 100.597656 112.003906 C 100.597656 112.050781 100.613281 112.070312 100.644531 112.050781 C 104.410156 109.957031 107.71875 107.851562 113.179688 104.476562 Z M 85.058594 120.671875 C 90.726562 117.71875 94.253906 115.757812 99.917969 112.472656 C 99.949219 112.449219 99.964844 112.417969 99.964844 112.375 L 99.964844 103.054688 C 99.964844 102.996094 99.949219 102.980469 99.910156 103.003906 C 94.996094 105.765625 90.046875 108.402344 85.050781 110.910156 C 85.019531 110.925781 85.003906 110.960938 85.003906 111.007812 L 85.003906 120.621094 C 85.003906 120.671875 85.019531 120.6875 85.058594 120.671875 Z M 171.859375 64.015625 L 171.839844 69.300781 C 171.839844 69.324219 171.824219 69.339844 171.808594 69.351562 L 171.203125 69.585938 C 171.203125 69.585938 171.195312 69.585938 171.195312 69.585938 C 171.179688 69.585938 171.160156 69.558594 171.160156 69.535156 L 171.160156 64.234375 C 171.160156 64.210938 171.167969 64.195312 171.1875 64.1875 L 171.808594 63.96875 C 171.808594 63.96875 171.816406 63.96875 171.816406 63.96875 C 171.839844 63.96875 171.859375 63.984375 171.859375 64.015625 Z M 169.308594 69.722656 L 169.308594 64.4375 C 169.308594 64.414062 169.324219 64.390625 169.339844 64.382812 L 169.957031 64.171875 C 169.964844 64.171875 169.964844 64.171875 169.964844 64.171875 C 169.988281 64.171875 170.011719 64.195312 170.011719 64.226562 L 169.996094 69.488281 C 169.996094 69.511719 169.980469 69.535156 169.964844 69.542969 L 169.363281 69.777344 C 169.363281 69.785156 169.355469 69.785156 169.355469 69.785156 C 169.332031 69.785156 169.308594 69.761719 169.308594 69.730469 C 169.308594 69.730469 169.308594 69.722656 169.308594 69.722656 Z M 169.722656 108.6875 L 169.722656 102.058594 C 169.722656 102.035156 169.738281 102.011719 169.753906 102 L 170.660156 101.734375 C 170.660156 101.734375 170.660156 101.734375 170.667969 101.734375 C 170.691406 101.734375 170.714844 101.757812 170.714844 101.792969 L 170.683594 108.386719 C 170.683594 108.410156 170.675781 108.433594 170.652344 108.441406 L 169.777344 108.742188 C 169.769531 108.75 169.769531 108.75 169.761719 108.75 C 169.738281 108.75 169.722656 108.71875 169.722656 108.6875 Z M 171.316406 108.695312 L 171.316406 102.058594 C 171.316406 102.035156 171.332031 102.011719 171.347656 102 L 172.253906 101.734375 C 172.261719 101.726562 172.261719 101.726562 172.269531 101.726562 C 172.292969 101.726562 172.3125 101.757812 172.3125 101.792969 L 172.277344 108.386719 C 172.277344 108.417969 172.269531 108.433594 172.246094 108.441406 L 171.371094 108.75 C 171.363281 108.75 171.363281 108.75 171.355469 108.75 C 171.332031 108.75 171.316406 108.726562 171.316406 108.695312 Z M 165.941406 108.894531 L 165.941406 102.261719 C 165.941406 102.238281 165.957031 102.210938 165.972656 102.210938 L 166.898438 101.929688 C 166.898438 101.929688 166.90625 101.929688 166.90625 101.929688 C 166.929688 101.929688 166.945312 101.953125 166.945312 101.984375 L 166.921875 108.597656 C 166.921875 108.621094 166.90625 108.644531 166.890625 108.652344 L 166 108.953125 C 165.992188 108.953125 165.992188 108.953125 165.992188 108.953125 C 165.964844 108.953125 165.941406 108.929688 165.941406 108.894531 Z M 168.257812 108.832031 C 168.144531 108.871094 168.03125 108.914062 167.917969 108.945312 C 167.867188 108.953125 167.851562 108.929688 167.851562 108.871094 L 167.851562 102.285156 C 167.851562 102.238281 167.867188 102.210938 167.902344 102.195312 L 168.773438 101.9375 C 168.816406 101.921875 168.839844 101.945312 168.839844 101.992188 C 168.839844 104.050781 168.832031 106.097656 168.816406 108.144531 C 168.816406 108.152344 168.824219 108.199219 168.824219 108.304688 C 168.832031 108.566406 168.742188 108.71875 168.554688 108.757812 C 168.363281 108.808594 168.257812 108.832031 168.257812 108.832031 Z M 162.171875 109.050781 L 162.171875 102.4375 C 162.171875 102.40625 162.179688 102.382812 162.203125 102.375 L 163.109375 102.097656 C 163.109375 102.097656 163.117188 102.097656 163.117188 102.097656 C 163.148438 102.097656 163.167969 102.125 163.167969 102.15625 L 163.132812 108.75 C 163.132812 108.78125 163.125 108.808594 163.101562 108.816406 L 162.234375 109.113281 C 162.226562 109.113281 162.226562 109.113281 162.21875 109.113281 C 162.195312 109.113281 162.171875 109.089844 162.171875 109.050781 Z M 164.023438 109.050781 L 164.023438 102.4375 C 164.023438 102.40625 164.039062 102.382812 164.054688 102.375 L 164.964844 102.097656 C 164.964844 102.097656 164.972656 102.097656 164.972656 102.097656 C 164.996094 102.097656 165.019531 102.132812 165.019531 102.164062 L 164.996094 108.75 C 164.996094 108.773438 164.980469 108.808594 164.964844 108.816406 L 164.089844 109.113281 C 164.082031 109.121094 164.082031 109.121094 164.074219 109.121094 C 164.046875 109.121094 164.023438 109.089844 164.023438 109.050781 Z M 160.449219 102.535156 L 161.371094 102.261719 C 161.371094 102.261719 161.371094 102.261719 161.378906 102.261719 C 161.402344 102.261719 161.417969 102.292969 161.417969 102.324219 L 161.386719 108.929688 C 161.386719 108.953125 161.378906 108.976562 161.355469 108.984375 L 160.480469 109.285156 C 160.472656 109.285156 160.472656 109.285156 160.464844 109.285156 C 160.4375 109.285156 160.421875 109.261719 160.421875 109.226562 L 160.414062 102.601562 C 160.414062 102.566406 160.429688 102.542969 160.449219 102.535156 Z M 158.652344 109.496094 L 158.652344 102.859375 C 158.652344 102.835938 158.667969 102.8125 158.683594 102.804688 L 159.597656 102.527344 C 159.597656 102.527344 159.605469 102.527344 159.605469 102.527344 C 159.628906 102.527344 159.644531 102.550781 159.644531 102.585938 L 159.621094 109.195312 C 159.621094 109.21875 159.605469 109.246094 159.589844 109.253906 L 158.707031 109.550781 C 158.707031 109.550781 158.699219 109.550781 158.699219 109.550781 C 158.675781 109.550781 158.652344 109.527344 158.652344 109.496094 Z M 155.511719 109.714844 L 155.511719 103.101562 C 155.511719 103.070312 155.527344 103.046875 155.550781 103.039062 L 156.449219 102.761719 C 156.457031 102.761719 156.457031 102.761719 156.464844 102.761719 C 156.492188 102.761719 156.515625 102.796875 156.515625 102.835938 L 156.492188 109.414062 C 156.492188 109.445312 156.472656 109.472656 156.449219 109.488281 L 155.585938 109.777344 C 155.574219 109.785156 155.574219 109.785156 155.566406 109.785156 C 155.535156 109.785156 155.511719 109.753906 155.511719 109.714844 Z M 157.046875 109.707031 L 157.046875 103.117188 C 157.046875 103.117188 157.046875 103.117188 157.046875 103.109375 C 157.046875 103.078125 157.066406 103.046875 157.097656 103.039062 L 157.988281 102.761719 C 157.996094 102.761719 157.996094 102.761719 158.003906 102.761719 C 158.035156 102.761719 158.058594 102.796875 158.058594 102.84375 L 158.027344 109.40625 C 158.027344 109.4375 158.011719 109.472656 157.988281 109.480469 L 157.121094 109.785156 C 157.121094 109.785156 157.113281 109.785156 157.105469 109.785156 C 157.074219 109.785156 157.046875 109.753906 157.046875 109.707031 Z M 172.527344 113.734375 L 172.527344 120.542969 L 171.914062 120.53125 L 171.914062 113.460938 C 171.914062 113.421875 171.898438 113.386719 171.859375 113.371094 C 170.578125 112.828125 169.269531 112.449219 167.933594 112.230469 C 167.882812 112.222656 167.867188 112.246094 167.867188 112.304688 L 167.867188 120.492188 L 167.246094 120.492188 L 167.246094 112.207031 C 167.246094 112.15625 167.210938 112.117188 167.171875 112.117188 L 165.238281 112.125 C 165.191406 112.132812 165.164062 112.15625 165.164062 112.214844 L 165.164062 120.484375 L 164.542969 120.476562 L 164.542969 112.34375 C 164.542969 112.296875 164.527344 112.277344 164.492188 112.285156 C 163.707031 112.441406 162.957031 112.730469 162.226562 113.152344 C 162.203125 113.167969 162.1875 113.203125 162.1875 113.242188 L 162.1875 120.476562 L 161.742188 120.476562 L 161.742188 113.535156 C 161.742188 113.515625 161.734375 113.5 161.71875 113.5 C 161.710938 113.5 161.710938 113.5 161.703125 113.5 C 160.664062 114.246094 159.839844 115.273438 159.234375 116.585938 C 159.183594 116.6875 159.160156 116.859375 159.160156 116.964844 C 159.167969 118.136719 159.167969 119.304688 159.167969 120.476562 C 157.945312 120.476562 156.734375 120.484375 155.511719 120.492188 L 155.511719 112.191406 C 155.511719 112.132812 155.535156 112.101562 155.574219 112.101562 L 172.851562 110.757812 C 172.902344 110.75 172.925781 110.78125 172.925781 110.855469 L 172.925781 113.75 C 172.925781 113.816406 172.902344 113.832031 172.851562 113.816406 L 172.59375 113.679688 C 172.554688 113.664062 172.527344 113.679688 172.527344 113.734375 Z M 172.527344 113.734375 " fill-opacity="1" fill-rule="evenodd"/><g clip-path="url(#ce1aacc97f)"><path fill="#32620e" d="M 274.054688 133.074219 C 262.71875 126.773438 216.484375 122.054688 161.167969 122.054688 C 105.847656 122.054688 59.609375 126.773438 48.273438 133.074219 C 75.285156 130.007812 115.828125 128.058594 161.167969 128.058594 C 206.5 128.058594 247.042969 130.007812 274.054688 133.074219 Z M 274.054688 133.074219 " fill-opacity="1" fill-rule="evenodd"/></g><g fill="#32620e" fill-opacity="1"><g transform="translate(73.838715, 302.590067)"><g><path d="M 10.078125 -16.796875 C 11.660156 -16.796875 13.082031 -16.550781 14.34375 -16.0625 C 15.601562 -15.582031 16.601562 -14.875 17.34375 -13.9375 C 18.09375 -13.007812 18.46875 -11.875 18.46875 -10.53125 L 13.40625 -10.53125 C 13.40625 -11.21875 13.097656 -11.769531 12.484375 -12.1875 C 11.878906 -12.613281 11.148438 -12.828125 10.296875 -12.828125 C 9.046875 -12.828125 8.097656 -12.492188 7.453125 -11.828125 C 6.816406 -11.171875 6.5 -10.234375 6.5 -9.015625 L 6.5 -7.484375 C 6.5 -6.265625 6.816406 -5.320312 7.453125 -4.65625 C 8.097656 -4 9.046875 -3.671875 10.296875 -3.671875 C 11.148438 -3.671875 11.878906 -3.875 12.484375 -4.28125 C 13.097656 -4.6875 13.40625 -5.210938 13.40625 -5.859375 L 9.671875 -5.859375 L 9.671875 -9.203125 L 18.46875 -9.203125 L 18.46875 0 L 15.734375 0 L 15.203125 -1.625 C 13.703125 -0.351562 11.738281 0.28125 9.3125 0.28125 C 6.570312 0.28125 4.515625 -0.429688 3.140625 -1.859375 C 1.765625 -3.285156 1.078125 -5.414062 1.078125 -8.25 C 1.078125 -11.050781 1.851562 -13.175781 3.40625 -14.625 C 4.96875 -16.070312 7.191406 -16.796875 10.078125 -16.796875 Z M 10.078125 -16.796875 "/></g></g></g><g fill="#32620e" fill-opacity="1"><g transform="translate(96.761163, 302.590067)"><g><path d="M 17.4375 -11.4375 C 17.4375 -10.425781 17.164062 -9.515625 16.625 -8.703125 C 16.082031 -7.890625 15.289062 -7.289062 14.25 -6.90625 L 17.921875 0 L 11.96875 0 L 9.046875 -6.015625 L 7.078125 -6.015625 L 7.078125 0 L 1.78125 0 L 1.78125 -16.5 L 11.875 -16.5 C 13.050781 -16.5 14.0625 -16.269531 14.90625 -15.8125 C 15.75 -15.363281 16.378906 -14.75 16.796875 -13.96875 C 17.222656 -13.195312 17.4375 -12.351562 17.4375 -11.4375 Z M 12.046875 -11.21875 C 12.046875 -11.65625 11.898438 -12.015625 11.609375 -12.296875 C 11.316406 -12.585938 10.960938 -12.734375 10.546875 -12.734375 L 7.078125 -12.734375 L 7.078125 -9.6875 L 10.546875 -9.6875 C 10.960938 -9.6875 11.316406 -9.832031 11.609375 -10.125 C 11.898438 -10.425781 12.046875 -10.789062 12.046875 -11.21875 Z M 12.046875 -11.21875 "/></g></g></g><g fill="#32620e" fill-opacity="1"><g transform="translate(118.364853, 302.590067)"><g><path d="M 1.78125 -16.5 L 16.046875 -16.5 L 16.046875 -12.546875 L 7.078125 -12.546875 L 7.078125 -10.265625 L 14.75 -10.265625 L 14.75 -6.46875 L 7.078125 -6.46875 L 7.078125 -3.953125 L 16.21875 -3.953125 L 16.21875 0 L 1.78125 0 Z M 1.78125 -16.5 "/></g></g></g><g fill="#32620e" fill-opacity="1"><g transform="translate(138.62582, 302.590067)"><g><path d="M 1.78125 -16.5 L 16.046875 -16.5 L 16.046875 -12.546875 L 7.078125 -12.546875 L 7.078125 -10.265625 L 14.75 -10.265625 L 14.75 -6.46875 L 7.078125 -6.46875 L 7.078125 -3.953125 L 16.21875 -3.953125 L 16.21875 0 L 1.78125 0 Z M 1.78125 -16.5 "/></g></g></g><g fill="#32620e" fill-opacity="1"><g transform="translate(158.886791, 302.590067)"><g><path d="M 13.578125 0 L 6.640625 -8.015625 L 6.640625 0 L 1.78125 0 L 1.78125 -16.5 L 6.40625 -16.5 L 13.328125 -8.375 L 13.328125 -16.5 L 18.203125 -16.5 L 18.203125 0 Z M 13.578125 0 "/></g></g></g><g fill="#32620e" fill-opacity="1"><g transform="translate(181.809241, 302.590067)"><g/></g></g><g fill="#32620e" fill-opacity="1"><g transform="translate(192.743093, 302.590067)"><g><path d="M 12.765625 -16.5 C 13.585938 -16.5 14.347656 -16.328125 15.046875 -15.984375 C 15.742188 -15.640625 16.296875 -15.15625 16.703125 -14.53125 C 17.109375 -13.90625 17.3125 -13.210938 17.3125 -12.453125 C 17.3125 -10.421875 16.394531 -9.140625 14.5625 -8.609375 L 14.5625 -8.515625 C 16.65625 -8.035156 17.703125 -6.660156 17.703125 -4.390625 C 17.703125 -3.523438 17.488281 -2.757812 17.0625 -2.09375 C 16.632812 -1.4375 16.050781 -0.921875 15.3125 -0.546875 C 14.582031 -0.179688 13.78125 0 12.90625 0 L 1.78125 0 L 1.78125 -16.5 Z M 7.078125 -10.078125 L 10.71875 -10.078125 C 11.070312 -10.078125 11.363281 -10.195312 11.59375 -10.4375 C 11.820312 -10.6875 11.9375 -11 11.9375 -11.375 L 11.9375 -11.609375 C 11.9375 -11.960938 11.816406 -12.257812 11.578125 -12.5 C 11.335938 -12.75 11.050781 -12.875 10.71875 -12.875 L 7.078125 -12.875 Z M 7.078125 -3.84375 L 11.109375 -3.84375 C 11.453125 -3.84375 11.738281 -3.960938 11.96875 -4.203125 C 12.207031 -4.453125 12.328125 -4.757812 12.328125 -5.125 L 12.328125 -5.375 C 12.328125 -5.738281 12.207031 -6.046875 11.96875 -6.296875 C 11.738281 -6.546875 11.453125 -6.671875 11.109375 -6.671875 L 7.078125 -6.671875 Z M 7.078125 -3.84375 "/></g></g></g><g fill="#32620e" fill-opacity="1"><g transform="translate(214.346786, 302.590067)"><g><path d="M 17.4375 -11.4375 C 17.4375 -10.425781 17.164062 -9.515625 16.625 -8.703125 C 16.082031 -7.890625 15.289062 -7.289062 14.25 -6.90625 L 17.921875 0 L 11.96875 0 L 9.046875 -6.015625 L 7.078125 -6.015625 L 7.078125 0 L 1.78125 0 L 1.78125 -16.5 L 11.875 -16.5 C 13.050781 -16.5 14.0625 -16.269531 14.90625 -15.8125 C 15.75 -15.363281 16.378906 -14.75 16.796875 -13.96875 C 17.222656 -13.195312 17.4375 -12.351562 17.4375 -11.4375 Z M 12.046875 -11.21875 C 12.046875 -11.65625 11.898438 -12.015625 11.609375 -12.296875 C 11.316406 -12.585938 10.960938 -12.734375 10.546875 -12.734375 L 7.078125 -12.734375 L 7.078125 -9.6875 L 10.546875 -9.6875 C 10.960938 -9.6875 11.316406 -9.832031 11.609375 -10.125 C 11.898438 -10.425781 12.046875 -10.789062 12.046875 -11.21875 Z M 12.046875 -11.21875 "/></g></g></g><g fill="#32620e" fill-opacity="1"><g transform="translate(235.950469, 302.590067)"><g><path d="M 2.015625 0 L 2.015625 -16.5 L 7.3125 -16.5 L 7.3125 0 Z M 2.015625 0 "/></g></g></g><g fill="#32620e" fill-opacity="1"><g transform="translate(248.227042, 302.590067)"><g><path d="M 8.921875 -16.5 C 14.691406 -16.5 17.578125 -13.75 17.578125 -8.25 C 17.578125 -2.75 14.691406 0 8.921875 0 L 1.78125 0 L 1.78125 -16.5 Z M 7.078125 -3.953125 L 8.828125 -3.953125 C 11.046875 -3.953125 12.15625 -5.144531 12.15625 -7.53125 L 12.15625 -8.96875 C 12.15625 -11.351562 11.046875 -12.546875 8.828125 -12.546875 L 7.078125 -12.546875 Z M 7.078125 -3.953125 "/></g></g></g><g fill="#32620e" fill-opacity="1"><g transform="translate(269.830735, 302.590067)"><g><path d="M 10.078125 -16.796875 C 11.660156 -16.796875 13.082031 -16.550781 14.34375 -16.0625 C 15.601562 -15.582031 16.601562 -14.875 17.34375 -13.9375 C 18.09375 -13.007812 18.46875 -11.875 18.46875 -10.53125 L 13.40625 -10.53125 C 13.40625 -11.21875 13.097656 -11.769531 12.484375 -12.1875 C 11.878906 -12.613281 11.148438 -12.828125 10.296875 -12.828125 C 9.046875 -12.828125 8.097656 -12.492188 7.453125 -11.828125 C 6.816406 -11.171875 6.5 -10.234375 6.5 -9.015625 L 6.5 -7.484375 C 6.5 -6.265625 6.816406 -5.320312 7.453125 -4.65625 C 8.097656 -4 9.046875 -3.671875 10.296875 -3.671875 C 11.148438 -3.671875 11.878906 -3.875 12.484375 -4.28125 C 13.097656 -4.6875 13.40625 -5.210938 13.40625 -5.859375 L 9.671875 -5.859375 L 9.671875 -9.203125 L 18.46875 -9.203125 L 18.46875 0 L 15.734375 0 L 15.203125 -1.625 C 13.703125 -0.351562 11.738281 0.28125 9.3125 0.28125 C 6.570312 0.28125 4.515625 -0.429688 3.140625 -1.859375 C 1.765625 -3.285156 1.078125 -5.414062 1.078125 -8.25 C 1.078125 -11.050781 1.851562 -13.175781 3.40625 -14.625 C 4.96875 -16.070312 7.191406 -16.796875 10.078125 -16.796875 Z M 10.078125 -16.796875 "/></g></g></g><g fill="#32620e" fill-opacity="1"><g transform="translate(292.753185, 302.590067)"><g><path d="M 1.78125 -16.5 L 16.046875 -16.5 L 16.046875 -12.546875 L 7.078125 -12.546875 L 7.078125 -10.265625 L 14.75 -10.265625 L 14.75 -6.46875 L 7.078125 -6.46875 L 7.078125 -3.953125 L 16.21875 -3.953125 L 16.21875 0 L 1.78125 0 Z M 1.78125 -16.5 "/></g></g></g><g fill="#32620e" fill-opacity="1"><g transform="translate(313.03049, 302.590067)"><g/></g></g><g fill="#32620e" fill-opacity="1"><g transform="translate(115.081381, 321.278188)"><g><path d="M 9.03125 -5.921875 C 9.03125 -5.398438 8.890625 -4.925781 8.609375 -4.5 C 8.328125 -4.082031 7.914062 -3.773438 7.375 -3.578125 L 9.28125 0 L 6.203125 0 L 4.6875 -3.125 L 3.671875 -3.125 L 3.671875 0 L 0.921875 0 L 0.921875 -8.546875 L 6.15625 -8.546875 C 6.757812 -8.546875 7.28125 -8.425781 7.71875 -8.1875 C 8.15625 -7.957031 8.484375 -7.640625 8.703125 -7.234375 C 8.921875 -6.835938 9.03125 -6.398438 9.03125 -5.921875 Z M 6.234375 -5.8125 C 6.234375 -6.039062 6.15625 -6.226562 6 -6.375 C 5.851562 -6.519531 5.675781 -6.59375 5.46875 -6.59375 L 3.671875 -6.59375 L 3.671875 -5.015625 L 5.46875 -5.015625 C 5.675781 -5.015625 5.851562 -5.09375 6 -5.25 C 6.15625 -5.40625 6.234375 -5.59375 6.234375 -5.8125 Z M 6.234375 -5.8125 "/></g></g></g><g fill="#32620e" fill-opacity="1"><g transform="translate(126.110173, 321.278188)"><g><path d="M 0.921875 -8.546875 L 8.3125 -8.546875 L 8.3125 -6.5 L 3.671875 -6.5 L 3.671875 -5.3125 L 7.640625 -5.3125 L 7.640625 -3.359375 L 3.671875 -3.359375 L 3.671875 -2.046875 L 8.390625 -2.046875 L 8.390625 0 L 0.921875 0 Z M 0.921875 -8.546875 "/></g></g></g><g fill="#32620e" fill-opacity="1"><g transform="translate(136.443462, 321.278188)"><g><path d="M 6.640625 0 L 6.28125 -1.203125 L 3.296875 -1.203125 L 2.9375 0 L 0.125 0 L 3.234375 -8.546875 L 6.4375 -8.546875 L 9.546875 0 Z M 3.859375 -3.125 L 5.71875 -3.125 L 4.8125 -6.15625 L 4.765625 -6.15625 Z M 3.859375 -3.125 "/></g></g></g><g fill="#32620e" fill-opacity="1"><g transform="translate(147.472253, 321.278188)"><g><path d="M 0.921875 -8.546875 L 3.671875 -8.546875 L 3.671875 -2.1875 L 8.046875 -2.1875 L 8.046875 0 L 0.921875 0 Z M 0.921875 -8.546875 "/></g></g></g><g fill="#32620e" fill-opacity="1"><g transform="translate(157.122453, 321.278188)"><g><path d="M 5.84375 -6.359375 L 5.84375 0 L 3.09375 0 L 3.09375 -6.359375 L 0.28125 -6.359375 L 0.28125 -8.546875 L 8.640625 -8.546875 L 8.640625 -6.359375 Z M 5.84375 -6.359375 "/></g></g></g><g fill="#32620e" fill-opacity="1"><g transform="translate(167.455742, 321.278188)"><g><path d="M 6.21875 0 L 3.484375 0 L 3.484375 -3.3125 L 0.09375 -8.546875 L 3.234375 -8.546875 L 4.875 -5.703125 L 4.9375 -5.703125 L 6.578125 -8.546875 L 9.5625 -8.546875 L 6.21875 -3.3125 Z M 6.21875 0 "/></g></g></g><g fill="#32620e" fill-opacity="1"><g transform="translate(178.484533, 321.278188)"><g/></g></g><g fill="#32620e" fill-opacity="1"><g transform="translate(183.986512, 321.278188)"><g><path d="M 4.515625 -8.6875 C 5.609375 -8.6875 6.503906 -8.460938 7.203125 -8.015625 C 7.910156 -7.578125 8.269531 -6.925781 8.28125 -6.0625 L 8.28125 -5.90625 L 5.71875 -5.90625 L 5.71875 -5.96875 C 5.71875 -6.207031 5.625 -6.410156 5.4375 -6.578125 C 5.257812 -6.742188 4.984375 -6.828125 4.609375 -6.828125 C 4.242188 -6.828125 3.960938 -6.773438 3.765625 -6.671875 C 3.578125 -6.566406 3.484375 -6.429688 3.484375 -6.265625 C 3.484375 -6.046875 3.613281 -5.878906 3.875 -5.765625 C 4.132812 -5.660156 4.5625 -5.550781 5.15625 -5.4375 C 5.84375 -5.300781 6.40625 -5.15625 6.84375 -5 C 7.289062 -4.84375 7.679688 -4.585938 8.015625 -4.234375 C 8.347656 -3.890625 8.515625 -3.421875 8.515625 -2.828125 C 8.515625 -1.816406 8.171875 -1.066406 7.484375 -0.578125 C 6.804688 -0.0859375 5.894531 0.15625 4.75 0.15625 C 3.414062 0.15625 2.378906 -0.0664062 1.640625 -0.515625 C 0.898438 -0.960938 0.53125 -1.753906 0.53125 -2.890625 L 3.125 -2.890625 C 3.125 -2.460938 3.234375 -2.175781 3.453125 -2.03125 C 3.679688 -1.882812 4.035156 -1.8125 4.515625 -1.8125 C 4.859375 -1.8125 5.144531 -1.847656 5.375 -1.921875 C 5.601562 -1.992188 5.71875 -2.148438 5.71875 -2.390625 C 5.71875 -2.597656 5.585938 -2.75 5.328125 -2.84375 C 5.078125 -2.945312 4.664062 -3.0625 4.09375 -3.1875 C 3.40625 -3.332031 2.832031 -3.484375 2.375 -3.640625 C 1.914062 -3.804688 1.515625 -4.070312 1.171875 -4.4375 C 0.835938 -4.8125 0.671875 -5.320312 0.671875 -5.96875 C 0.671875 -6.894531 1.03125 -7.578125 1.75 -8.015625 C 2.476562 -8.460938 3.398438 -8.6875 4.515625 -8.6875 Z M 4.515625 -8.6875 "/></g></g></g><g fill="#32620e" fill-opacity="1"><g transform="translate(194.319801, 321.278188)"><g><path d="M 4.625 -8.546875 C 7.613281 -8.546875 9.109375 -7.117188 9.109375 -4.265625 C 9.109375 -1.421875 7.613281 0 4.625 0 L 0.921875 0 L 0.921875 -8.546875 Z M 3.671875 -2.046875 L 4.578125 -2.046875 C 5.722656 -2.046875 6.296875 -2.664062 6.296875 -3.90625 L 6.296875 -4.640625 C 6.296875 -5.878906 5.722656 -6.5 4.578125 -6.5 L 3.671875 -6.5 Z M 3.671875 -2.046875 "/></g></g></g><g fill="#32620e" fill-opacity="1"><g transform="translate(205.348592, 321.278188)"><g><path d="M 7.03125 0 L 3.4375 -4.15625 L 3.4375 0 L 0.921875 0 L 0.921875 -8.546875 L 3.3125 -8.546875 L 6.90625 -4.328125 L 6.90625 -8.546875 L 9.421875 -8.546875 L 9.421875 0 Z M 7.03125 0 "/></g></g></g><g fill="#32620e" fill-opacity="1"><g transform="translate(217.060473, 321.278188)"><g><path d="M 0.75 0 L 0.75 -2.46875 L 3.390625 -2.46875 L 3.390625 0 Z M 0.75 0 "/></g></g></g><g fill="#32620e" fill-opacity="1"><g transform="translate(222.562452, 321.278188)"><g><path d="M 6.609375 -8.546875 C 7.035156 -8.546875 7.425781 -8.457031 7.78125 -8.28125 C 8.144531 -8.101562 8.429688 -7.851562 8.640625 -7.53125 C 8.859375 -7.207031 8.96875 -6.847656 8.96875 -6.453125 C 8.96875 -5.398438 8.492188 -4.734375 7.546875 -4.453125 L 7.546875 -4.40625 C 8.628906 -4.15625 9.171875 -3.441406 9.171875 -2.265625 C 9.171875 -1.828125 9.0625 -1.4375 8.84375 -1.09375 C 8.625 -0.75 8.320312 -0.476562 7.9375 -0.28125 C 7.550781 -0.09375 7.132812 0 6.6875 0 L 0.921875 0 L 0.921875 -8.546875 Z M 3.671875 -5.21875 L 5.546875 -5.21875 C 5.734375 -5.21875 5.882812 -5.28125 6 -5.40625 C 6.125 -5.539062 6.1875 -5.703125 6.1875 -5.890625 L 6.1875 -6.015625 C 6.1875 -6.191406 6.125 -6.34375 6 -6.46875 C 5.875 -6.601562 5.722656 -6.671875 5.546875 -6.671875 L 3.671875 -6.671875 Z M 3.671875 -1.984375 L 5.75 -1.984375 C 5.9375 -1.984375 6.085938 -2.046875 6.203125 -2.171875 C 6.328125 -2.304688 6.390625 -2.46875 6.390625 -2.65625 L 6.390625 -2.78125 C 6.390625 -2.96875 6.328125 -3.125 6.203125 -3.25 C 6.085938 -3.382812 5.9375 -3.453125 5.75 -3.453125 L 3.671875 -3.453125 Z M 3.671875 -1.984375 "/></g></g></g><g fill="#32620e" fill-opacity="1"><g transform="translate(233.591244, 321.278188)"><g><path d="M 6.6875 0 L 6.6875 -3.234375 L 3.671875 -3.234375 L 3.671875 0 L 0.921875 0 L 0.921875 -8.546875 L 3.671875 -8.546875 L 3.671875 -5.421875 L 6.6875 -5.421875 L 6.6875 -8.546875 L 9.421875 -8.546875 L 9.421875 0 Z M 6.6875 0 "/></g></g></g><g fill="#32620e" fill-opacity="1"><g transform="translate(245.303125, 321.278188)"><g><path d="M 4.625 -8.546875 C 7.613281 -8.546875 9.109375 -7.117188 9.109375 -4.265625 C 9.109375 -1.421875 7.613281 0 4.625 0 L 0.921875 0 L 0.921875 -8.546875 Z M 3.671875 -2.046875 L 4.578125 -2.046875 C 5.722656 -2.046875 6.296875 -2.664062 6.296875 -3.90625 L 6.296875 -4.640625 C 6.296875 -5.878906 5.722656 -6.5 4.578125 -6.5 L 3.671875 -6.5 Z M 3.671875 -2.046875 "/></g></g></g><g fill="#32620e" fill-opacity="1"><g transform="translate(256.331916, 321.278188)"><g><path d="M 0.75 0 L 0.75 -2.46875 L 3.390625 -2.46875 L 3.390625 0 Z M 0.75 0 "/></g></g></g></svg>